<svg width="178" height="48" viewBox="0 0 178 48" fill="none" xmlns="http://www.w3.org/2000/svg">
<g filter="url(#filter0_d_1_31)">
<g clip-path="url(#clip0_1_31)">
<path d="M5.75601 20.066C5.63824 19.923 5.57452 19.7432 5.576 19.558C5.57239 19.3733 5.63361 19.1932 5.749 19.049L6.757 17.776L5.81901 16.987L4.83501 18.221C4.54773 18.5983 4.39274 19.0598 4.39401 19.534V19.574C4.39181 20.0504 4.54643 20.5142 4.83401 20.894L5.82701 22.148L6.76501 21.359L5.75601 20.066Z" fill="url(#paint0_linear_1_31)"/>
<path d="M62.946 19.538C62.944 19.0028 62.7744 18.4818 62.461 18.048L62.414 17.985L62.371 17.929L48.178 0H18.768L4.532 17.985C4.18983 18.4291 4.00293 18.9733 4 19.534V19.574C4.002 20.112 4.174 20.637 4.492 21.071L18.768 39.111H48.178L62.414 21.127C62.7577 20.6833 62.9448 20.1383 62.946 19.577V19.538ZM51.758 19.561L39.218 35.39V3.72L51.758 19.56V19.561ZM27.735 3.721V35.39L15.192 19.554L27.735 3.721Z" fill="url(#paint1_linear_1_31)"/>
<path d="M61.863 18.461L47.847 0.764999H19.099L5.08699 18.46C4.84454 18.7731 4.71298 19.158 4.71298 19.554C4.71298 19.95 4.84454 20.3349 5.08699 20.648L19.099 38.35H47.847L61.863 20.65C62.1031 20.3357 62.2332 19.9511 62.2332 19.5555C62.2332 19.1599 62.1031 18.7753 61.863 18.461ZM28.109 36.49L14.72 19.538L28.11 2.606V36.489L28.109 36.49ZM38.836 36.49V2.621L52.246 19.573L38.836 36.489V36.49Z" fill="url(#paint2_linear_1_31)"/>
<path d="M40.656 2.566C40.4958 2.35878 40.2906 2.19076 40.0558 2.07467C39.821 1.95859 39.5629 1.89748 39.301 1.896C39.178 1.896 39.056 1.91 38.935 1.936L38.801 1.971L38.679 2.011C38.5631 2.05824 38.4525 2.11757 38.349 2.188C38.1289 2.38179 37.9608 2.62767 37.8602 2.90315C37.7596 3.17863 37.7296 3.47494 37.773 3.765C37.7933 3.94611 37.8756 4.11463 38.006 4.242V3.765C38.0012 3.47333 38.0889 3.18763 38.2565 2.94888C38.4242 2.71013 38.6631 2.53059 38.939 2.436C39.183 2.36255 39.4436 2.36553 39.6858 2.44454C39.928 2.52355 40.1403 2.67481 40.294 2.878L53.084 19.041C53.201 19.192 53.264 19.378 53.266 19.569H53.731C53.731 19.265 53.629 18.969 53.443 18.729L40.656 2.566Z" fill="url(#paint3_linear_1_31)"/>
<path d="M53.085 20.105L40.294 36.27C40.1775 36.4228 40.0272 36.5467 39.855 36.6321C39.6828 36.7174 39.4932 36.7619 39.301 36.762H39.25L38.856 36.979C38.856 36.979 39.896 37.374 40.561 36.679C40.589 36.649 40.617 36.621 40.644 36.585L53.431 20.422C53.617 20.18 53.718 19.883 53.719 19.578H53.266C53.2654 19.7691 53.2018 19.9547 53.085 20.106V20.105Z" fill="url(#paint4_linear_1_31)"/>
<path d="M27.892 36.726C28.015 36.726 28.137 36.707 28.255 36.671C28.5342 36.5796 28.7769 36.4013 28.9476 36.1622C29.1183 35.9231 29.2081 35.6357 29.204 35.342V3.75699C29.2058 3.52205 29.1483 3.29045 29.0367 3.08366C28.9252 2.87686 28.7633 2.70156 28.566 2.57399L28.212 2.20399C28.5079 2.24456 28.7892 2.3575 29.0309 2.53281C29.2727 2.70812 29.4675 2.94038 29.598 3.20899C29.648 3.38699 29.674 3.57199 29.673 3.75699V35.342C29.6802 35.736 29.5621 36.122 29.3356 36.4445C29.1091 36.7669 28.786 37.0091 28.413 37.136C28.333 37.163 28.251 37.183 28.168 37.196C27.9091 37.1992 27.6534 37.1398 27.4223 37.023C27.1913 36.9062 26.9919 36.7353 26.841 36.525L27.022 36.363C27.252 36.595 27.566 36.725 27.892 36.726Z" fill="url(#paint5_linear_1_31)"/>
<path d="M28.11 36.49L14.72 19.537H13.566C13.566 19.783 13.65 20.022 13.802 20.215L26.589 36.378C26.7284 36.5582 26.9075 36.7039 27.1123 36.8038C27.3171 36.9037 27.5421 36.9551 27.77 36.954C27.917 36.954 28.063 36.934 28.204 36.89L28.109 36.488L28.11 36.49Z" fill="url(#paint6_linear_1_31)"/>
<path d="M52.246 19.562H53.368C53.3694 19.3132 53.2862 19.0713 53.132 18.876L40.345 2.712C40.2066 2.52961 40.0279 2.38171 39.8228 2.27988C39.6178 2.17804 39.3919 2.12503 39.163 2.125C39.017 2.125 38.87 2.148 38.73 2.192L38.829 2.61L52.246 19.562Z" fill="url(#paint7_linear_1_31)"/>
<path d="M28.11 2.622L28.196 2.2C28.0558 2.1543 27.9095 2.13035 27.762 2.129C27.534 2.1303 27.3092 2.18346 27.1048 2.28447C26.9004 2.38547 26.7216 2.53167 26.582 2.712L13.793 18.876C13.6407 19.0723 13.5577 19.3135 13.557 19.562H14.695L28.108 2.622H28.11Z" fill="url(#paint8_linear_1_31)"/>
<path d="M28.196 2.2L28.109 2.622V36.489L28.196 36.884C28.5229 36.7723 28.8055 36.559 29.0025 36.2753C29.1995 35.9916 29.3006 35.6523 29.291 35.307V3.757C29.2964 3.41505 29.1934 3.08018 28.9967 2.80044C28.7999 2.5207 28.5196 2.3105 28.196 2.2Z" fill="url(#paint9_linear_1_31)"/>
<path d="M5.75599 19.049L19.508 1.675L18.965 0.393997L4.83499 18.221C4.54771 18.5983 4.39273 19.0598 4.39399 19.534V19.557H5.57499C5.57378 19.3717 5.63786 19.1918 5.75599 19.049Z" fill="url(#paint10_linear_1_31)"/>
<path d="M52.246 19.562L38.836 36.49L38.738 36.911C38.878 36.956 39.024 36.978 39.171 36.978C39.3995 36.978 39.625 36.9254 39.83 36.8243C40.0349 36.7232 40.2139 36.5763 40.353 36.395L53.14 20.232C53.293 20.037 53.376 19.797 53.376 19.55L52.246 19.562Z" fill="url(#paint11_linear_1_31)"/>
<path d="M38.837 36.49V2.62L38.738 2.203C38.4115 2.31521 38.1292 2.52863 37.9323 2.81223C37.7354 3.09584 37.634 3.43485 37.643 3.78V35.353C37.6376 35.695 37.7406 36.0298 37.9373 36.3096C38.134 36.5893 38.4144 36.7995 38.738 36.91L38.837 36.488V36.49Z" fill="url(#paint12_linear_1_31)"/>
<path d="M5.75599 20.066C5.6383 19.923 5.57459 19.7432 5.57599 19.558H4.39299C4.38699 20.04 4.54299 20.51 4.83299 20.894L18.963 38.724L19.507 37.452L5.75599 20.066Z" fill="url(#paint13_linear_1_31)"/>
<path d="M62.564 19.561H61.382C61.382 19.745 61.322 19.923 61.212 20.071L47.442 37.451L47.992 38.737L62.115 20.894C62.407 20.512 62.565 20.043 62.564 19.561Z" fill="url(#paint14_linear_1_31)"/>
<path d="M62.115 18.22L47.993 0.395004L47.441 1.688L61.193 19.058C61.304 19.204 61.363 19.383 61.363 19.566H62.543C62.5531 19.083 62.4025 18.6103 62.115 18.222V18.22Z" fill="url(#paint15_linear_1_31)"/>
<path d="M62.564 19.562C62.5653 19.0802 62.4071 18.6115 62.114 18.229L61.122 16.979L60.189 17.768L61.193 19.038C61.3028 19.1848 61.3621 19.3632 61.3621 19.5465C61.3621 19.7298 61.3028 19.9082 61.193 20.055L60.19 21.32L61.123 22.108L62.116 20.894C62.408 20.512 62.565 20.044 62.564 19.562Z" fill="url(#paint16_linear_1_31)"/>
<path d="M5.51601 18.836C5.35971 19.0394 5.27656 19.2895 5.28001 19.546H5.57501C5.5716 19.3612 5.63318 19.181 5.74901 19.037L19.509 1.675L19.359 1.345L5.51601 18.835V18.836Z" fill="url(#paint17_linear_1_31)"/>
<path d="M47.441 1.675L47.993 0.382004H18.957L19.508 1.675H47.441Z" fill="url(#paint18_linear_1_31)"/>
<path d="M47.441 1.675L48.811 3.402L49.639 2.46L47.993 0.382004H45.24V1.675H47.441Z" fill="url(#paint19_linear_1_31)"/>
<path d="M19.508 37.44L18.957 38.725H47.993L47.441 37.44H19.508Z" fill="url(#paint20_linear_1_31)"/>
<path d="M19.508 37.44L18.134 35.705L17.307 36.647L18.957 38.725H21.706V37.44H19.508Z" fill="url(#paint21_linear_1_31)"/>
<path d="M5.51201 20.267L19.36 37.763L19.51 37.44L5.75501 20.066C5.63725 19.923 5.57353 19.7432 5.57501 19.558H5.27101C5.26801 19.815 5.35301 20.065 5.51101 20.268L5.51201 20.267Z" fill="url(#paint22_linear_1_31)"/>
<path d="M47.441 1.67499L47.583 1.34799L19.367 1.34399L19.508 1.67499H47.441Z" fill="url(#paint23_linear_1_31)"/>
<path d="M77.493 31.711V32.855H75.28V38.977H73.953V32.855H71.723V31.71H77.493V31.711ZM80.049 33.36C80.4068 33.3507 80.7636 33.4024 81.104 33.513C81.365 33.603 81.6 33.754 81.79 33.955C81.964 34.151 82.09 34.386 82.156 34.641C82.232 34.93 82.269 35.228 82.266 35.528V38.851C82.069 38.891 81.778 38.941 81.38 39.005C80.9389 39.0648 80.4942 39.0939 80.049 39.092C79.7457 39.0947 79.4431 39.0628 79.147 38.997C78.8963 38.9444 78.6591 38.8409 78.45 38.693C78.2567 38.5526 78.1022 38.3654 78.001 38.149C77.8848 37.8878 77.8298 37.6036 77.84 37.318C77.83 37.043 77.893 36.772 78.02 36.529C78.14 36.314 78.311 36.132 78.517 35.997C78.741 35.857 78.987 35.758 79.246 35.705C79.529 35.645 79.818 35.614 80.108 35.615C80.4222 35.6191 80.7351 35.6573 81.041 35.729V35.519C81.0418 35.3732 81.0251 35.2278 80.991 35.086C80.9562 34.9568 80.8926 34.8371 80.805 34.736C80.7126 34.6293 80.5945 34.5477 80.462 34.499C80.2885 34.439 80.1055 34.4109 79.922 34.416C79.6584 34.4145 79.3951 34.4356 79.135 34.479C78.932 34.509 78.731 34.559 78.537 34.625L78.379 33.6C78.609 33.5241 78.8447 33.4673 79.084 33.43C79.403 33.379 79.726 33.355 80.049 33.36ZM80.151 38.09C80.449 38.096 80.747 38.075 81.041 38.027V36.62C80.8006 36.5508 80.5511 36.5188 80.301 36.525C80.159 36.525 80.017 36.534 79.876 36.553C79.739 36.573 79.606 36.613 79.482 36.671C79.3708 36.7239 79.2755 36.8053 79.206 36.907C79.1289 37.0237 79.0917 37.1623 79.1 37.302C79.0869 37.4217 79.1063 37.5427 79.1561 37.6523C79.2059 37.7619 79.2843 37.8561 79.383 37.925C79.62 38.047 79.885 38.103 80.151 38.086V38.09ZM85.019 31.889C85.0246 31.9945 85.0071 32.1 84.9675 32.1979C84.9279 32.2959 84.8673 32.384 84.79 32.456C84.6415 32.5938 84.4456 32.669 84.243 32.666C84.0391 32.67 83.8415 32.5948 83.692 32.456C83.6141 32.3842 83.5529 32.2963 83.5126 32.1983C83.4724 32.1004 83.4541 31.9948 83.459 31.889C83.454 31.7819 83.4722 31.6749 83.5124 31.5755C83.5526 31.476 83.6139 31.3865 83.692 31.313C83.8414 31.1748 84.0385 31.0999 84.242 31.104C84.4449 31.1007 84.6412 31.176 84.79 31.314C84.8673 31.3877 84.9278 31.4772 84.9673 31.5765C85.0068 31.6757 85.0245 31.7823 85.019 31.889ZM84.885 38.985H83.617V33.509H84.885V38.985ZM89.56 35.528C89.4006 36.1309 89.2272 36.7301 89.04 37.325C88.8656 37.8784 88.6829 38.4291 88.492 38.977H87.452C87.1146 38.1828 86.8136 37.3736 86.55 36.552C86.401 36.084 86.24 35.595 86.09 35.078C85.94 34.562 85.783 34.034 85.637 33.501H86.976C87.039 33.797 87.114 34.112 87.201 34.451C87.287 34.791 87.37 35.138 87.461 35.488C87.551 35.839 87.65 36.186 87.748 36.521C87.846 36.856 87.945 37.164 88.043 37.444C88.146 37.12 88.248 36.789 88.35 36.446C88.453 36.103 88.547 35.764 88.638 35.421C88.807 34.7839 88.9644 34.1438 89.11 33.501H90.083C90.146 33.789 90.213 34.093 90.292 34.42C90.371 34.747 90.453 35.078 90.54 35.421C90.7133 36.1019 90.9101 36.7767 91.13 37.444C91.22 37.165 91.314 36.858 91.414 36.521C91.6135 35.835 91.7985 35.1448 91.969 34.451C92.052 34.112 92.127 33.797 92.19 33.501H93.501C93.356 34.041 93.202 34.566 93.049 35.078C92.902 35.5717 92.7484 36.0634 92.588 36.553C92.434 37.018 92.281 37.463 92.128 37.877C91.974 38.291 91.82 38.666 91.674 38.977H90.638C90.4468 38.4283 90.2604 37.878 90.079 37.326C89.887 36.7322 89.7146 36.1326 89.56 35.528ZM96.065 33.36C96.425 33.35 96.783 33.402 97.125 33.513C97.385 33.603 97.62 33.755 97.81 33.955C97.983 34.152 98.109 34.387 98.176 34.641C98.253 34.93 98.29 35.228 98.286 35.528V38.851C98.089 38.891 97.794 38.941 97.4 39.005C96.958 39.065 96.512 39.093 96.065 39.091C95.7631 39.0939 95.4618 39.0624 95.167 38.997C94.9163 38.9443 94.6791 38.8409 94.47 38.693C94.2765 38.5517 94.1209 38.3649 94.017 38.149C93.9025 37.887 93.8475 37.6028 93.856 37.317C93.8481 37.0427 93.9119 36.7711 94.041 36.529C94.161 36.314 94.331 36.132 94.537 35.997C94.76 35.857 95.007 35.757 95.266 35.705C95.549 35.645 95.838 35.614 96.128 35.615C96.4426 35.6179 96.7559 35.6562 97.062 35.729V35.519C97.062 35.379 97.042 35.239 97.006 35.102C96.9733 34.9729 96.9118 34.8529 96.826 34.751C96.7319 34.6446 96.6126 34.5634 96.479 34.515C96.3056 34.4546 96.1226 34.4265 95.939 34.432C95.6754 34.4304 95.4121 34.4515 95.152 34.495C94.9483 34.525 94.7477 34.5739 94.553 34.641L94.395 33.616C94.6237 33.5405 94.8581 33.4837 95.096 33.446C95.4162 33.3888 95.7408 33.3597 96.066 33.359L96.065 33.36ZM96.171 38.09C96.469 38.096 96.767 38.075 97.061 38.027V36.62C96.962 36.591 96.861 36.569 96.758 36.553C96.6122 36.533 96.4652 36.5237 96.318 36.525C96.175 36.525 96.033 36.534 95.892 36.553C95.756 36.573 95.623 36.613 95.498 36.671C95.3856 36.7238 95.2891 36.8052 95.218 36.907C95.124 37.069 95.0907 37.2591 95.124 37.4435C95.1574 37.6278 95.2552 37.7942 95.4 37.913C95.636 38.041 95.903 38.101 96.171 38.086V38.09ZM99.625 33.67C99.939 33.5878 100.257 33.5221 100.578 33.473C101.008 33.4071 101.443 33.3757 101.878 33.379C102.258 33.367 102.638 33.429 102.996 33.56C103.275 33.67 103.521 33.847 103.713 34.077C103.901 34.307 104.036 34.577 104.107 34.865C104.182 35.2 104.218 35.543 104.213 35.886V38.969H102.949V36.091C102.951 35.8402 102.933 35.5897 102.894 35.342C102.864 35.1644 102.8 34.9944 102.704 34.842C102.616 34.7142 102.491 34.6154 102.347 34.558C102.172 34.4938 101.986 34.4629 101.799 34.467C101.631 34.4679 101.462 34.4783 101.295 34.498C101.122 34.522 100.992 34.538 100.901 34.554V38.977H99.633L99.625 33.671V33.67ZM110.022 39.06C109.628 39.06 109.234 39.06 108.84 39.025C108.493 39.0081 108.149 38.9565 107.812 38.871V31.818C108.152 31.7568 108.495 31.7108 108.84 31.68L109.38 31.649H109.888C110.298 31.646 110.708 31.679 111.113 31.747C111.456 31.803 111.787 31.915 112.093 32.078C112.356 32.222 112.577 32.431 112.735 32.685C112.897 32.969 112.976 33.293 112.964 33.62C112.973 33.93 112.888 34.237 112.719 34.499C112.55 34.747 112.321 34.949 112.054 35.086C112.437 35.196 112.777 35.422 113.027 35.733C113.246 36.053 113.357 36.436 113.342 36.825C113.362 37.1523 113.297 37.4792 113.154 37.7741C113.01 38.0689 112.793 38.3217 112.523 38.508C111.979 38.871 111.144 39.06 110.022 39.06ZM109.148 34.668H110.077C110.482 34.6873 110.886 34.6134 111.258 34.452C111.402 34.3802 111.52 34.2661 111.597 34.125C111.674 33.9839 111.706 33.8227 111.688 33.663C111.694 33.509 111.656 33.3565 111.577 33.2241C111.498 33.0918 111.382 32.9854 111.243 32.918C110.878 32.7595 110.482 32.6853 110.085 32.701L109.541 32.721C109.384 32.721 109.25 32.721 109.148 32.752V34.668ZM109.148 35.705V37.917C109.293 37.917 109.451 37.94 109.62 37.948H110.077C110.331 37.949 110.585 37.931 110.837 37.893C111.049 37.867 111.255 37.806 111.447 37.712C111.606 37.63 111.741 37.509 111.841 37.361C111.95 37.1923 112.004 36.9937 111.995 36.793C112.011 36.6216 111.978 36.4491 111.898 36.2964C111.818 36.1438 111.696 36.0175 111.546 35.933C111.154 35.7556 110.726 35.6734 110.297 35.693L109.148 35.705ZM118.93 38.808C118.69 38.871 118.371 38.934 117.977 39.005C117.551 39.072 117.12 39.105 116.689 39.103C116.312 39.1141 115.937 39.0498 115.586 38.914C115.309 38.801 115.064 38.6209 114.874 38.39C114.689 38.1574 114.555 37.8886 114.48 37.601C114.402 37.265 114.363 36.921 114.366 36.576V33.51H115.634V36.384C115.598 36.819 115.687 37.255 115.89 37.642C115.992 37.7795 116.128 37.8882 116.285 37.9572C116.442 38.0263 116.614 38.0534 116.784 38.036H117.268C117.4 38.0295 117.532 38.0124 117.662 37.985V33.51H118.926L118.93 38.808ZM121.706 38.063C121.956 38.078 122.206 38.037 122.439 37.944C122.51 37.9067 122.57 37.8499 122.61 37.7801C122.651 37.7103 122.67 37.6305 122.667 37.55C122.667 37.4602 122.644 37.372 122.602 37.2929C122.559 37.2139 122.498 37.1466 122.423 37.097C122.17 36.9332 121.897 36.8006 121.612 36.702C121.396 36.6242 121.184 36.5347 120.978 36.434C120.798 36.3477 120.631 36.2367 120.482 36.104C120.34 35.9784 120.227 35.8235 120.151 35.65C120.066 35.4427 120.026 35.2199 120.033 34.996C120.024 34.7692 120.069 34.5434 120.165 34.3377C120.261 34.1319 120.405 33.952 120.584 33.813C121.023 33.503 121.555 33.349 122.092 33.379C122.403 33.3773 122.713 33.4064 123.018 33.466C123.241 33.507 123.461 33.566 123.675 33.639L123.443 34.669C123.271 34.5934 123.091 34.5351 122.907 34.495C122.661 34.4374 122.408 34.4109 122.155 34.416C121.938 34.4078 121.721 34.4524 121.525 34.546C121.452 34.5824 121.391 34.6388 121.35 34.7086C121.308 34.7784 121.287 34.8587 121.289 34.94C121.286 35.0238 121.3 35.1074 121.332 35.185C121.372 35.261 121.429 35.327 121.498 35.378C121.592 35.448 121.694 35.507 121.801 35.555C121.951 35.625 122.104 35.685 122.262 35.737C122.522 35.834 122.777 35.944 123.026 36.067C123.215 36.164 123.389 36.287 123.541 36.434C123.674 36.565 123.777 36.724 123.841 36.9C123.909 37.103 123.943 37.316 123.939 37.53C123.95 37.7605 123.903 37.9901 123.801 38.1971C123.699 38.4041 123.546 38.5816 123.356 38.713C122.855 39.0072 122.278 39.1445 121.698 39.107C121.301 39.1183 120.904 39.0787 120.517 38.989C120.308 38.934 120.101 38.8682 119.899 38.792L120.119 37.735C120.339 37.823 120.564 37.897 120.793 37.956C121.091 38.03 121.398 38.067 121.706 38.063ZM126.326 31.889C126.331 31.9952 126.312 32.1011 126.271 32.1991C126.23 32.2972 126.168 32.3849 126.089 32.456C126.017 32.5247 125.933 32.5786 125.84 32.6147C125.748 32.6507 125.649 32.6681 125.55 32.666C125.345 32.6713 125.145 32.5959 124.995 32.456C124.917 32.384 124.856 32.2959 124.816 32.1978C124.775 32.0996 124.757 31.9939 124.762 31.888C124.757 31.781 124.776 31.6743 124.816 31.5751C124.856 31.4759 124.917 31.3865 124.995 31.313C125.145 31.173 125.345 31.099 125.55 31.104C125.703 31.1033 125.853 31.1474 125.981 31.2309C126.11 31.3145 126.211 31.4337 126.272 31.574C126.312 31.674 126.331 31.781 126.326 31.889ZM126.188 38.985H124.92V33.509H126.188V38.985ZM127.59 33.67C127.904 33.588 128.222 33.523 128.543 33.473C128.973 33.407 129.407 33.376 129.842 33.379C130.223 33.367 130.603 33.429 130.961 33.56C131.239 33.67 131.486 33.847 131.677 34.077C131.869 34.305 132.004 34.575 132.071 34.865C132.148 35.2 132.185 35.543 132.182 35.886V38.969H130.917V36.091C130.92 35.8399 130.899 35.5891 130.854 35.342C130.829 35.1634 130.764 34.9927 130.665 34.842C130.581 34.7117 130.456 34.6121 130.311 34.558C130.136 34.4936 129.95 34.4627 129.764 34.467C129.595 34.468 129.427 34.4784 129.259 34.498C129.082 34.522 128.956 34.538 128.866 34.554V38.977H127.598L127.59 33.671V33.67ZM133.202 36.269C133.193 35.8358 133.266 35.4048 133.418 34.999C133.545 34.6623 133.738 34.3544 133.985 34.093C134.218 33.8573 134.497 33.6721 134.804 33.549C135.104 33.429 135.423 33.367 135.746 33.368C136.071 33.349 136.397 33.4012 136.7 33.5209C137.004 33.6405 137.277 33.8249 137.502 34.061C137.965 34.656 138.191 35.402 138.136 36.155V36.628H134.525C134.528 36.8208 134.571 37.0109 134.651 37.1864C134.73 37.362 134.846 37.5191 134.989 37.648C135.326 37.91 135.746 38.038 136.171 38.011C136.454 38.014 136.736 37.986 137.014 37.929C137.22 37.889 137.421 37.829 137.616 37.751L137.785 38.788C137.692 38.831 137.596 38.868 137.498 38.898C137.195 38.9899 136.884 39.0506 136.569 39.079C136.385 39.1017 136.199 39.1124 136.013 39.111C135.585 39.1202 135.159 39.0482 134.757 38.899C134.427 38.7711 134.13 38.5697 133.889 38.3099C133.648 38.0502 133.47 37.739 133.367 37.4C133.252 37.0342 133.196 36.6524 133.202 36.269ZM136.876 35.701C136.877 35.5331 136.853 35.3659 136.805 35.205C136.758 35.061 136.684 34.927 136.588 34.81C136.497 34.6931 136.38 34.5987 136.246 34.534C136.093 34.4644 135.925 34.4309 135.757 34.436C135.579 34.4315 135.402 34.4692 135.241 34.546C135.101 34.617 134.975 34.715 134.871 34.834C134.771 34.951 134.691 35.084 134.635 35.228C134.582 35.38 134.543 35.538 134.521 35.698L136.876 35.701ZM140.652 38.063C140.902 38.078 141.153 38.037 141.385 37.944C141.457 37.907 141.517 37.8503 141.558 37.7806C141.599 37.7108 141.62 37.6309 141.617 37.55C141.617 37.4602 141.594 37.3718 141.551 37.293C141.509 37.2139 141.448 37.1466 141.373 37.097C141.118 36.9334 140.844 36.8008 140.558 36.702C140.343 36.6249 140.133 36.5354 139.928 36.434C139.747 36.3499 139.58 36.2386 139.432 36.104C139.279 35.9783 139.158 35.8188 139.077 35.638C138.99 35.4313 138.948 35.2082 138.955 34.984C138.947 34.7568 138.992 34.531 139.089 34.3252C139.186 34.1194 139.33 33.9397 139.51 33.801C139.949 33.4886 140.481 33.3354 141.019 33.367C141.327 33.3651 141.634 33.3942 141.936 33.454C142.161 33.494 142.382 33.553 142.598 33.628L142.366 34.657C141.96 34.4814 141.52 34.3955 141.078 34.405C140.862 34.3963 140.647 34.4409 140.452 34.535C140.379 34.571 140.317 34.6272 140.274 34.697C140.232 34.7668 140.21 34.8472 140.211 34.929C140.21 35.0128 140.226 35.0959 140.259 35.173C140.297 35.2489 140.352 35.3149 140.42 35.366C140.514 35.436 140.616 35.496 140.723 35.544C140.873 35.614 141.027 35.674 141.184 35.724C141.445 35.821 141.7 35.932 141.948 36.056C142.139 36.151 142.314 36.275 142.468 36.423C142.601 36.553 142.703 36.713 142.767 36.888C142.834 37.091 142.866 37.304 142.862 37.518C142.874 37.7486 142.827 37.9783 142.725 38.1854C142.622 38.3925 142.469 38.57 142.279 38.701C141.779 38.997 141.201 39.134 140.621 39.096C140.23 39.106 139.84 39.066 139.459 38.977C139.249 38.9231 139.043 38.8574 138.841 38.78L139.061 37.724C139.281 37.812 139.506 37.886 139.735 37.944C140.034 38.023 140.343 38.063 140.652 38.063ZM145.221 38.063C145.471 38.078 145.721 38.038 145.953 37.944C146.025 37.9071 146.085 37.8505 146.127 37.7808C146.168 37.711 146.188 37.631 146.186 37.55C146.185 37.4599 146.161 37.3714 146.118 37.2924C146.075 37.2134 146.012 37.1463 145.937 37.097C145.685 36.933 145.414 36.8004 145.13 36.702C144.914 36.6254 144.702 36.5359 144.496 36.434C144.314 36.3487 144.146 36.2375 143.996 36.104C143.856 35.9779 143.744 35.823 143.669 35.65C143.582 35.443 143.54 35.2196 143.547 34.995C143.539 34.768 143.585 34.5423 143.681 34.3367C143.778 34.1311 143.922 33.9516 144.102 33.813C144.541 33.5006 145.073 33.3474 145.611 33.379C145.92 33.3775 146.229 33.4066 146.532 33.466C146.755 33.507 146.975 33.565 147.19 33.639L146.953 34.649C146.547 34.4751 146.108 34.3889 145.666 34.396C145.449 34.3869 145.232 34.4315 145.036 34.526C144.962 34.5617 144.901 34.6179 144.858 34.6877C144.815 34.7575 144.793 34.8381 144.795 34.92C144.794 35.0041 144.81 35.0876 144.843 35.165C144.881 35.2409 144.936 35.3069 145.004 35.358C145.098 35.428 145.2 35.488 145.307 35.536C145.457 35.606 145.611 35.666 145.768 35.716C146.028 35.814 146.283 35.924 146.532 36.048C146.722 36.145 146.897 36.268 147.052 36.415C147.184 36.545 147.285 36.705 147.347 36.88C147.418 37.082 147.451 37.296 147.446 37.51C147.457 37.7404 147.409 37.9698 147.307 38.1768C147.205 38.3837 147.052 38.5613 146.863 38.693C146.361 38.9881 145.782 39.1257 145.201 39.088C144.81 39.097 144.42 39.058 144.039 38.969C143.83 38.9139 143.624 38.8481 143.421 38.772L143.642 37.716C143.863 37.803 144.089 37.876 144.319 37.936C144.613 38.016 144.916 38.059 145.221 38.063ZM152.908 39.06C152.514 39.06 152.12 39.06 151.746 39.025C151.399 39.0084 151.055 38.9568 150.718 38.871V31.818C151.058 31.7568 151.401 31.7108 151.746 31.68L152.282 31.649H152.794C153.204 31.646 153.614 31.679 154.018 31.747C154.36 31.803 154.69 31.915 154.995 32.078C155.259 32.221 155.482 32.431 155.641 32.685C155.801 32.97 155.88 33.293 155.869 33.62C155.876 33.93 155.791 34.236 155.625 34.499C155.451 34.75 155.215 34.952 154.94 35.086C155.323 35.196 155.663 35.422 155.913 35.733C156.132 36.053 156.243 36.436 156.228 36.825C156.247 37.1521 156.181 37.4786 156.038 37.7733C155.895 38.068 155.678 38.3209 155.409 38.508C154.865 38.871 154.042 39.06 152.908 39.06ZM152.018 34.668H152.947C153.352 34.688 153.757 34.613 154.129 34.452C154.272 34.3799 154.39 34.2658 154.467 34.125C154.543 33.9842 154.575 33.8234 154.558 33.664C154.565 33.5097 154.527 33.3568 154.447 33.2242C154.368 33.0916 154.252 32.9852 154.113 32.918C153.748 32.7595 153.352 32.6853 152.955 32.701H152.416C152.258 32.701 152.124 32.701 152.022 32.733L152.018 34.668ZM152.018 35.705V37.917C152.164 37.917 152.321 37.94 152.486 37.948H152.947C153.202 37.949 153.456 37.931 153.707 37.893C153.919 37.866 154.125 37.805 154.318 37.712C154.475 37.628 154.61 37.507 154.712 37.361C154.819 37.1914 154.872 36.9934 154.865 36.793C154.88 36.6258 154.848 36.4578 154.772 36.3081C154.696 36.1583 154.58 36.0329 154.436 35.946C154.045 35.7676 153.617 35.6854 153.187 35.706L152.018 35.705ZM159.162 33.36C159.521 33.35 159.879 33.402 160.221 33.513C160.481 33.603 160.716 33.755 160.906 33.955C161.08 34.152 161.205 34.387 161.272 34.641C161.349 34.93 161.386 35.228 161.383 35.528V38.851C161.186 38.891 160.89 38.941 160.497 39.005C160.055 39.0644 159.608 39.0932 159.162 39.091C158.86 39.0942 158.559 39.0627 158.264 38.997C158.013 38.946 157.775 38.8424 157.567 38.693C157.373 38.5519 157.218 38.365 157.114 38.149C156.999 37.887 156.944 37.6029 156.952 37.317C156.944 37.0427 157.008 36.7711 157.137 36.529C157.258 36.314 157.428 36.132 157.634 35.997C157.857 35.857 158.104 35.757 158.362 35.705C158.646 35.645 158.935 35.614 159.225 35.615C159.539 35.617 159.852 35.655 160.158 35.729V35.519C160.158 35.379 160.139 35.239 160.103 35.102C160.069 34.9652 160.001 34.8392 159.905 34.7358C159.809 34.6324 159.689 34.5551 159.555 34.511C159.382 34.4508 159.199 34.4226 159.016 34.428C158.746 34.4253 158.476 34.4464 158.209 34.491C158.006 34.521 157.807 34.57 157.614 34.637L157.456 33.612C157.685 33.536 157.92 33.48 158.157 33.442C158.489 33.3841 158.825 33.3574 159.162 33.36ZM159.264 38.09C159.563 38.0959 159.863 38.0748 160.158 38.027V36.62C160.058 36.5915 159.957 36.5691 159.855 36.553C159.709 36.533 159.561 36.5236 159.414 36.525C159.272 36.5245 159.129 36.5338 158.988 36.553C158.852 36.573 158.719 36.613 158.595 36.671C158.483 36.7236 158.386 36.805 158.315 36.907C158.221 37.069 158.188 37.259 158.221 37.443C158.254 37.6273 158.352 37.7939 158.496 37.913C158.727 38.037 158.987 38.097 159.248 38.086L159.264 38.09ZM162.706 33.67C163.02 33.588 163.338 33.523 163.659 33.473C164.088 33.4073 164.521 33.3759 164.955 33.379C165.337 33.367 165.718 33.429 166.077 33.56C166.355 33.67 166.602 33.847 166.794 34.077C166.985 34.305 167.12 34.575 167.187 34.865C167.264 35.2 167.301 35.543 167.298 35.886V38.969H166.014V36.091C166.016 35.8402 165.998 35.5897 165.959 35.342C165.93 35.1645 165.865 34.9946 165.77 34.842C165.683 34.7124 165.557 34.6132 165.411 34.558C165.236 34.4938 165.05 34.4629 164.864 34.467C164.696 34.4682 164.527 34.4789 164.36 34.499C164.187 34.522 164.057 34.538 163.966 34.554V38.977H162.706V33.67ZM169.889 35.634L171.834 33.509H173.339L171.074 35.953L173.477 38.993H172.012L169.897 36.478V38.993H168.613V31.053L169.877 30.844L169.889 35.634ZM81.754 8.56999H74.272V9.82799H91.82C91.9431 9.83234 92.063 9.78794 92.1536 9.70444C92.2443 9.62094 92.2983 9.50508 92.304 9.38199V8.56999H84.822V7.54499H93.115C93.2366 7.54636 93.354 7.50002 93.4418 7.41589C93.5297 7.33177 93.5811 7.21657 93.585 7.09499V6.22499H84.81V5.04199H81.754V6.22499H72.98V7.54499H81.754V8.56999ZM84.81 23.508H91.82C91.9431 23.5123 92.063 23.4679 92.1536 23.3844C92.2443 23.3009 92.2983 23.1851 92.304 23.062V22.246H84.822V21.351H89.662C89.8771 21.3594 90.0918 21.3253 90.2936 21.2505C90.4955 21.1757 90.6806 21.0617 90.8383 20.9152C90.996 20.7687 91.1232 20.5924 91.2125 20.3966C91.3019 20.2007 91.3517 19.9891 91.359 19.774V19.096H88.327V19.711C88.3275 19.7673 88.3159 19.8231 88.293 19.8746C88.2701 19.926 88.2364 19.972 88.1942 20.0093C88.152 20.0466 88.1023 20.0745 88.0485 20.091C87.9946 20.1075 87.9379 20.1123 87.882 20.105H78.198L79.773 18.402H90.88C91.003 18.4063 91.1227 18.3621 91.2133 18.2788C91.3039 18.1955 91.358 18.0799 91.364 17.957V17.168H75.217V18.387H76.564L75.327 19.758C75.1758 19.9293 75.092 20.1496 75.091 20.378C75.1025 20.6467 75.2199 20.9 75.4176 21.0823C75.6153 21.2647 75.8772 21.3613 76.146 21.351H81.75V22.246H74.268V23.508H81.75V24.398H71.704V25.912H94.38C94.5025 25.9161 94.6217 25.8716 94.7116 25.7882C94.8015 25.7049 94.8548 25.5895 94.86 25.467V24.398H84.81V23.508ZM91.796 10.62H74.764C74.6469 10.6157 74.532 10.653 74.4397 10.7253C74.3475 10.7976 74.2838 10.9002 74.26 11.015V14.357H90.61C90.8252 14.3658 91.04 14.332 91.242 14.2574C91.444 14.1828 91.6293 14.069 91.7871 13.9225C91.945 13.776 92.0723 13.5997 92.1617 13.4038C92.2511 13.2079 92.3008 12.9962 92.308 12.781V11.089C92.3018 10.9591 92.2445 10.8369 92.1486 10.7491C92.0527 10.6612 91.926 10.6148 91.796 10.62ZM89.796 12.816C89.7958 12.8694 89.7848 12.9222 89.7636 12.9712C89.7425 13.0202 89.7117 13.0645 89.673 13.1013C89.6343 13.1381 89.5886 13.1667 89.5386 13.1854C89.4886 13.204 89.4353 13.2124 89.382 13.21H76.78V11.748H89.808L89.796 12.816ZM93.166 15.142H72.216C72.0854 15.1369 71.9581 15.1838 71.8621 15.2725C71.7661 15.3612 71.7092 15.4844 71.704 15.615V18.891H74.217V16.404H91.938C91.9913 16.4014 92.0446 16.4097 92.0946 16.4283C92.1446 16.447 92.1904 16.4756 92.229 16.5125C92.2676 16.5493 92.2983 16.5936 92.3193 16.6427C92.3403 16.6918 92.3511 16.7446 92.351 16.798V18.903H94.868V16.707C94.8493 16.2741 94.6597 15.8663 94.3409 15.573C94.0221 15.2796 93.5989 15.1247 93.166 15.142ZM102.673 10.368L101.098 5.95999C101.058 5.8621 100.989 5.77875 100.9 5.72104C100.812 5.66333 100.708 5.63401 100.602 5.63699H98.515L100.188 10.367H102.673V10.368ZM115.578 7.21399V6.36999H113.609V5.04999H111.314V6.36999H109.344V7.65199H115.055C115.183 7.66194 115.311 7.62059 115.409 7.537C115.507 7.45341 115.568 7.33439 115.578 7.20599V7.21399ZM115.082 9.18499V8.44499H109.829V9.62699H114.555C114.619 9.63344 114.684 9.62679 114.746 9.60744C114.808 9.58809 114.865 9.55645 114.914 9.51441C114.964 9.47237 115.004 9.4208 115.033 9.36282C115.062 9.30483 115.078 9.24162 115.082 9.17699V9.18499ZM109.829 11.649H114.555C114.682 11.6581 114.807 11.6169 114.903 11.5344C115 11.4518 115.06 11.3345 115.07 11.208V10.47H109.829V11.649ZM109.782 16.853H113.479C113.884 16.8819 114.284 16.7494 114.592 16.4843C114.9 16.2192 115.091 15.843 115.122 15.438V12.875C115.113 12.7528 115.056 12.6392 114.964 12.5586C114.872 12.4781 114.751 12.4373 114.629 12.445H110.27C110.16 12.4394 110.052 12.4716 109.963 12.5362C109.874 12.6008 109.81 12.6939 109.782 12.8V16.853ZM111.593 13.431H113.322V15.493C113.31 15.5891 113.264 15.6775 113.191 15.7414C113.118 15.8054 113.025 15.8405 112.928 15.84H111.605L111.593 13.431ZM103.153 12.122C103.169 12.3627 103.28 12.5872 103.461 12.7468C103.642 12.9063 103.878 12.988 104.119 12.974H105.43V16.916H107.143V15.26L108.943 15.938V14.858C108.94 14.7638 108.909 14.6727 108.854 14.5966C108.798 14.5206 108.721 14.4631 108.632 14.432L107.143 13.872V12.966H107.427C107.872 12.9915 108.309 12.8399 108.642 12.5445C108.976 12.249 109.179 11.8336 109.207 11.389V10.644H107.135V11.472C107.133 11.5267 107.12 11.5805 107.096 11.6301C107.073 11.6796 107.04 11.7241 106.999 11.7608C106.959 11.7975 106.911 11.8257 106.859 11.8437C106.808 11.8618 106.753 11.8694 106.698 11.866H105.493L108.328 8.19999C108.338 8.18955 108.346 8.17688 108.35 8.16299C108.355 8.14958 108.357 8.13526 108.356 8.12099C108.353 8.09063 108.342 8.0617 108.323 8.03772C108.304 8.01375 108.279 7.99578 108.25 7.98599C108.231 7.97975 108.211 7.97737 108.191 7.97899H105.702L107.887 5.16399H105.82C105.737 5.1625 105.654 5.17979 105.579 5.21459C105.503 5.24939 105.436 5.3008 105.383 5.36499L103.307 8.04999C103.208 8.18173 103.154 8.34211 103.154 8.50699C103.17 8.74748 103.281 8.97186 103.461 9.13139C103.642 9.29092 103.878 9.37271 104.119 9.35899H105.087L103.307 11.665C103.209 11.7946 103.155 11.9524 103.154 12.115L103.153 12.122ZM101.113 12.221C101.072 12.1245 101.002 12.0425 100.914 11.9855C100.826 11.9285 100.723 11.8991 100.618 11.901H98.515L101.007 18.923L98.515 25.913H100.605C100.71 25.916 100.814 25.8871 100.903 25.8299C100.992 25.7728 101.061 25.6902 101.102 25.593L103.256 19.51C103.398 19.1177 103.398 18.6883 103.256 18.296L101.113 12.221ZM119.91 22.076H106.667L106.974 21.036H119.024C119.429 21.0625 119.829 20.9284 120.137 20.6627C120.444 20.397 120.635 20.021 120.667 19.616V18.04C120.66 17.9158 120.604 17.7995 120.512 17.716C120.467 17.6745 120.413 17.6426 120.355 17.6224C120.297 17.6021 120.235 17.5938 120.174 17.598H104.505V18.875H117.93V19.498C117.918 19.594 117.871 19.6822 117.799 19.7462C117.726 19.8101 117.633 19.8452 117.536 19.845H104.934C104.83 19.8395 104.726 19.8675 104.639 19.9251C104.552 19.9827 104.485 20.0668 104.449 20.165L103.855 22.215C103.835 22.2811 103.824 22.3498 103.823 22.419C103.843 22.6499 103.95 22.8647 104.121 23.0205C104.293 23.1762 104.517 23.2614 104.749 23.259H118.205L117.985 24.253C117.96 24.3434 117.905 24.4226 117.829 24.4776C117.753 24.5327 117.661 24.5603 117.567 24.556H106.95L107.056 25.451C107.087 25.5804 107.161 25.6952 107.267 25.7763C107.372 25.8573 107.502 25.8996 107.635 25.896H119.032C119.409 25.9148 119.782 25.8032 120.087 25.58C120.391 25.3567 120.61 25.0354 120.706 24.67L120.997 23.093C121.005 23.0239 121.005 22.9541 120.997 22.885C120.937 22.6453 120.796 22.4338 120.598 22.2863C120.4 22.1388 120.157 22.0645 119.91 22.076ZM104.631 16.238C104.821 15.385 104.915 14.514 104.91 13.64H103.524C103.514 14.642 103.367 15.638 103.087 16.6H104.115C104.231 16.6049 104.346 16.5702 104.439 16.5015C104.533 16.4328 104.601 16.3342 104.631 16.222V16.238ZM120.036 12.982C120.481 13.0085 120.918 12.8573 121.251 12.5615C121.584 12.2658 121.786 11.8498 121.813 11.405V10.644H119.745V11.472C119.742 11.5267 119.729 11.5803 119.706 11.63C119.671 11.7045 119.614 11.7667 119.543 11.8088C119.472 11.8508 119.39 11.8707 119.308 11.866H118.103L120.938 8.19999C120.948 8.1893 120.956 8.17668 120.96 8.16291C120.965 8.14915 120.967 8.13454 120.966 8.11999C120.962 8.07866 120.942 8.04051 120.91 8.0139C120.878 7.98729 120.837 7.97438 120.796 7.97799H118.312L120.497 5.16399H118.43C118.347 5.16228 118.264 5.17947 118.188 5.21429C118.113 5.2491 118.046 5.30063 117.993 5.36499L115.913 8.04999C115.816 8.18273 115.762 8.34246 115.76 8.50699C115.777 8.74764 115.888 8.97187 116.069 9.13128C116.251 9.29068 116.487 9.37247 116.728 9.35899H117.697L115.913 11.665C115.816 11.7977 115.762 11.9575 115.76 12.122C115.777 12.3626 115.888 12.5869 116.069 12.7463C116.251 12.9057 116.487 12.9875 116.728 12.974H118.04V16.916H119.753V15.26L121.553 15.938V14.858C121.549 14.764 121.518 14.6732 121.462 14.5973C121.407 14.5214 121.33 14.4638 121.241 14.432L119.753 13.872V12.966L120.036 12.982ZM117.24 16.238C117.431 15.385 117.525 14.514 117.52 13.64H116.134C116.125 14.643 115.977 15.64 115.693 16.6H116.721C116.837 16.6045 116.952 16.5697 117.046 16.5011C117.14 16.4325 117.209 16.3342 117.24 16.222V16.238ZM138.333 17.823H146C146.092 17.8263 146.183 17.8026 146.261 17.7548C146.34 17.707 146.403 17.6372 146.442 17.554C146.468 17.4987 146.482 17.4389 146.485 17.378V16.1H138.333V9.59499H135.643V24.201H130.063C129.982 24.2062 129.902 24.1862 129.833 24.1438C129.764 24.1013 129.71 24.0385 129.678 23.964C129.656 23.9146 129.645 23.8611 129.645 23.807V15.576H127.046V24.347C127.063 24.7806 127.249 25.1902 127.566 25.487C127.884 25.7825 128.306 25.9396 128.74 25.924H146.855C146.918 25.9272 146.98 25.9179 147.039 25.8965C147.098 25.8751 147.152 25.8421 147.198 25.7995C147.243 25.7569 147.28 25.7055 147.306 25.6484C147.332 25.5913 147.346 25.5296 147.347 25.467V24.202H138.333V17.823ZM129.5 12.395C130.851 10.963 132.024 8.84599 132.772 7.30899H140.869L143.779 12.158C143.902 12.3292 144.064 12.4683 144.252 12.5637C144.439 12.6591 144.647 12.7079 144.858 12.706H147.438L143.267 6.00399C143.144 5.83218 142.981 5.69264 142.793 5.59723C142.604 5.50182 142.395 5.45336 142.184 5.45599H131.028C130.835 5.45567 130.645 5.50945 130.481 5.61124C130.316 5.71303 130.184 5.85877 130.098 6.03199C128.887 8.44317 127.372 10.6889 125.589 12.714H128.763C128.901 12.7137 129.038 12.6852 129.165 12.6302C129.291 12.5752 129.405 12.4948 129.5 12.394V12.395ZM157.677 12.726H160.115C160.236 12.7279 160.352 12.6821 160.439 12.5985C160.526 12.515 160.576 12.4005 160.579 12.28V11.17H152.861V12.746H155.314V15.446H152.191V17.004H155.318V24.368H154.57C154.489 24.3734 154.408 24.3535 154.339 24.3111C154.27 24.2686 154.216 24.2057 154.184 24.131C154.163 24.0814 154.152 24.0279 154.152 23.974V18.695H152.183V24.36C152.195 24.6845 152.303 24.9982 152.493 25.2613C152.683 25.5244 152.948 25.7251 153.252 25.838C153.454 25.913 153.669 25.946 153.885 25.938H160.556C160.616 25.9392 160.675 25.9286 160.731 25.9068C160.786 25.8851 160.837 25.8525 160.88 25.8111C160.924 25.7697 160.958 25.7202 160.982 25.6654C161.006 25.6107 161.019 25.5517 161.02 25.492V24.368H157.669V16.984H160.556C160.675 16.99 160.791 16.9486 160.88 16.869C160.968 16.7893 161.022 16.6779 161.028 16.559V15.427H157.677V12.727V12.726ZM158.52 23.37H160.032C160.134 23.3692 160.233 23.3317 160.31 23.2644C160.388 23.1971 160.438 23.1044 160.453 23.003L160.678 18.013H158.807L158.52 23.37ZM159.449 5.06999H154.605C154.429 5.06314 154.255 5.11583 154.112 5.21959C153.97 5.32335 153.866 5.47214 153.818 5.64199C153.341 7.27302 152.585 8.8093 151.585 10.183H153.869C153.996 10.1884 154.123 10.163 154.238 10.1088C154.353 10.0547 154.453 9.9734 154.53 9.87199C155.187 8.87819 155.687 7.78862 156.011 6.64199H158.039L158.768 9.63499C158.806 9.79628 158.898 9.93989 159.028 10.0423C159.158 10.1448 159.319 10.2 159.485 10.199H161.304L160.158 5.64499C160.119 5.48629 160.028 5.34518 159.899 5.24382C159.771 5.14246 159.613 5.08659 159.449 5.08499V5.06999ZM164.647 23.843V16.029H170.846C171.057 16.0336 171.267 15.9965 171.464 15.9197C171.661 15.8429 171.84 15.728 171.993 15.5815C172.145 15.4351 172.267 15.26 172.351 15.0663C172.435 14.8726 172.48 14.6642 172.484 14.453V5.91299C172.483 5.84928 172.47 5.78638 172.444 5.72811C172.418 5.66985 172.381 5.61741 172.334 5.57399C172.288 5.52972 172.234 5.49506 172.175 5.47205C172.115 5.44904 172.052 5.43814 171.988 5.43999H162.773C162.659 5.43844 162.548 5.47719 162.459 5.54942C162.371 5.62166 162.31 5.72277 162.289 5.83499V24.146C162.3 24.6248 162.501 25.0797 162.847 25.4109C163.193 25.7421 163.656 25.9227 164.135 25.913H165.746C165.925 25.9075 166.096 25.8412 166.232 25.725C166.368 25.6088 166.461 25.4497 166.494 25.274L166.609 24.292H165.1C165.012 24.2947 164.926 24.2709 164.851 24.2239C164.777 24.1768 164.719 24.1086 164.684 24.028C164.661 23.9743 164.648 23.9165 164.647 23.858V23.843ZM164.647 11.579H168.68C168.74 11.5806 168.8 11.5703 168.855 11.5487C168.911 11.5271 168.962 11.4946 169.006 11.4531C169.049 11.4116 169.083 11.3619 169.107 11.307C169.131 11.2521 169.144 11.1929 169.145 11.133V9.87199H164.647V6.99399H170.125V14.09C170.125 14.1943 170.084 14.2944 170.01 14.3682C169.936 14.4421 169.836 14.4837 169.732 14.484H164.647V11.579ZM168.928 21.04L172.551 17.165H169.861C169.713 17.1675 169.566 17.2003 169.431 17.2613C169.296 17.3224 169.174 17.4104 169.074 17.52L166.223 20.547C166.15 20.6115 166.092 20.6907 166.051 20.7795C166.011 20.8683 165.991 20.9646 165.991 21.062C165.991 21.1594 166.011 21.2557 166.051 21.3445C166.092 21.4333 166.15 21.5125 166.223 21.577L169.988 25.518C170.088 25.628 170.209 25.7162 170.345 25.7773C170.48 25.8384 170.626 25.8709 170.775 25.873H173.461L168.928 21.04Z" fill="#4F4F4F"/>
</g>
</g>
<defs>
<filter id="filter0_d_1_31" x="0" y="0" width="178" height="48" filterUnits="userSpaceOnUse" color-interpolation-filters="sRGB">
<feFlood flood-opacity="0" result="BackgroundImageFix"/>
<feColorMatrix in="SourceAlpha" type="matrix" values="0 0 0 0 0 0 0 0 0 0 0 0 0 0 0 0 0 0 127 0" result="hardAlpha"/>
<feOffset dy="4"/>
<feGaussianBlur stdDeviation="2"/>
<feComposite in2="hardAlpha" operator="out"/>
<feColorMatrix type="matrix" values="0 0 0 0 0 0 0 0 0 0 0 0 0 0 0 0 0 0 0.25 0"/>
<feBlend mode="normal" in2="BackgroundImageFix" result="effect1_dropShadow_1_31"/>
<feBlend mode="normal" in="SourceGraphic" in2="effect1_dropShadow_1_31" result="shape"/>
</filter>
<linearGradient id="paint0_linear_1_31" x1="5.57101" y1="18.757" x2="5.57101" y2="20.386" gradientUnits="userSpaceOnUse">
<stop offset="0.35" stop-color="#F08300"/>
<stop offset="0.78" stop-color="#DC4F03"/>
</linearGradient>
<linearGradient id="paint1_linear_1_31" x1="21.761" y1="-0.196999" x2="30.276" y2="14.129" gradientUnits="userSpaceOnUse">
<stop stop-color="#D45315"/>
<stop offset="0.03" stop-color="#CD4F13"/>
<stop offset="0.15" stop-color="#B4420C"/>
<stop offset="0.29" stop-color="#A03707"/>
<stop offset="0.45" stop-color="#923004"/>
<stop offset="0.64" stop-color="#8A2B02"/>
<stop offset="1" stop-color="#882A01"/>
</linearGradient>
<linearGradient id="paint2_linear_1_31" x1="29.184" y1="-1.313" x2="37.783" y2="40.424" gradientUnits="userSpaceOnUse">
<stop stop-color="#F18D00"/>
<stop offset="0.03" stop-color="#F08501"/>
<stop offset="0.12" stop-color="#ED7002"/>
<stop offset="0.22" stop-color="#EB6103"/>
<stop offset="0.34" stop-color="#EA5804"/>
<stop offset="0.52" stop-color="#EA5504"/>
<stop offset="1" stop-color="#EA5504"/>
</linearGradient>
<linearGradient id="paint3_linear_1_31" x1="53.191" y1="11.969" x2="46.007" y2="10.666" gradientUnits="userSpaceOnUse">
<stop stop-color="#FACC80"/>
<stop offset="0.06" stop-color="#F9C677"/>
<stop offset="0.51" stop-color="#F39C37"/>
<stop offset="0.83" stop-color="#EF820F"/>
<stop offset="1" stop-color="#EE7800"/>
</linearGradient>
<linearGradient id="paint4_linear_1_31" x1="50.143" y1="28.96" x2="43.089" y2="27.681" gradientUnits="userSpaceOnUse">
<stop stop-color="#FACC80"/>
<stop offset="0.06" stop-color="#F9C677"/>
<stop offset="0.51" stop-color="#F39C37"/>
<stop offset="0.83" stop-color="#EF820F"/>
<stop offset="1" stop-color="#EE7800"/>
</linearGradient>
<linearGradient id="paint5_linear_1_31" x1="27.613" y1="4.22999" x2="28.832" y2="34.759" gradientUnits="userSpaceOnUse">
<stop stop-color="#FCE2BA"/>
<stop offset="0.15" stop-color="#FDDF9B"/>
<stop offset="0.32" stop-color="#FACA77"/>
<stop offset="0.64" stop-color="#F5A437"/>
<stop offset="0.88" stop-color="#F18C0F"/>
<stop offset="1" stop-color="#F08300"/>
</linearGradient>
<linearGradient id="paint6_linear_1_31" x1="27.64" y1="37.317" x2="14.071" y2="19.173" gradientUnits="userSpaceOnUse">
<stop stop-color="#CB4800"/>
<stop offset="1" stop-color="#AF3200"/>
</linearGradient>
<linearGradient id="paint7_linear_1_31" x1="51.313" y1="16.68" x2="39.729" y2="3.915" gradientUnits="userSpaceOnUse">
<stop stop-color="#CB4800"/>
<stop offset="0.29" stop-color="#C34300"/>
<stop offset="0.73" stop-color="#AD3500"/>
<stop offset="1" stop-color="#9C2B00"/>
</linearGradient>
<linearGradient id="paint8_linear_1_31" x1="13.566" y1="10.841" x2="28.196" y2="10.841" gradientUnits="userSpaceOnUse">
<stop stop-color="#CB4800"/>
<stop offset="0.29" stop-color="#C34300"/>
<stop offset="0.73" stop-color="#AD3500"/>
<stop offset="1" stop-color="#9C2B00"/>
</linearGradient>
<linearGradient id="paint9_linear_1_31" x1="28.7" y1="6.978" x2="28.7" y2="36.56" gradientUnits="userSpaceOnUse">
<stop stop-color="#F7B86D"/>
<stop offset="0.26" stop-color="#F3974A"/>
<stop offset="0.58" stop-color="#EE7324"/>
<stop offset="0.84" stop-color="#EB5D0D"/>
<stop offset="1" stop-color="#EA5504"/>
</linearGradient>
<linearGradient id="paint10_linear_1_31" x1="18.567" y1="2.2" x2="5.41299" y2="18.393" gradientUnits="userSpaceOnUse">
<stop stop-color="#F7B86D"/>
<stop offset="0.05" stop-color="#F6B261"/>
<stop offset="0.24" stop-color="#F4A13E"/>
<stop offset="0.42" stop-color="#F29423"/>
<stop offset="0.61" stop-color="#F18B0F"/>
<stop offset="0.8" stop-color="#F08504"/>
<stop offset="1" stop-color="#F08300"/>
</linearGradient>
<linearGradient id="paint11_linear_1_31" x1="53.4" y1="19.585" x2="38.716" y2="36.896" gradientUnits="userSpaceOnUse">
<stop stop-color="#F7B86D"/>
<stop offset="0.03" stop-color="#F6B364"/>
<stop offset="0.13" stop-color="#F4A545"/>
<stop offset="0.24" stop-color="#F3982C"/>
<stop offset="0.36" stop-color="#F28F18"/>
<stop offset="0.5" stop-color="#F1880A"/>
<stop offset="0.68" stop-color="#F08402"/>
<stop offset="1" stop-color="#F08300"/>
</linearGradient>
<linearGradient id="paint12_linear_1_31" x1="38.242" y1="36.911" x2="38.242" y2="2.204" gradientUnits="userSpaceOnUse">
<stop stop-color="#CB4800"/>
<stop offset="1" stop-color="#9C2B00"/>
</linearGradient>
<linearGradient id="paint13_linear_1_31" x1="6.48499" y1="21.99" x2="16.138" y2="33.901" gradientUnits="userSpaceOnUse">
<stop stop-color="#DC4F03"/>
<stop offset="1" stop-color="#CA3D04"/>
</linearGradient>
<linearGradient id="paint14_linear_1_31" x1="25.943" y1="40.649" x2="57.646" y2="27.982" gradientUnits="userSpaceOnUse">
<stop stop-color="#AE4003"/>
<stop offset="1" stop-color="#932600"/>
</linearGradient>
<linearGradient id="paint15_linear_1_31" x1="47.595" y1="1.277" x2="60.256" y2="16.781" gradientUnits="userSpaceOnUse">
<stop offset="0.19" stop-color="#DC4F03"/>
<stop offset="0.99" stop-color="#B94100"/>
</linearGradient>
<linearGradient id="paint16_linear_1_31" x1="61.378" y1="18.758" x2="61.378" y2="20.386" gradientUnits="userSpaceOnUse">
<stop offset="0.35" stop-color="#B94100"/>
<stop offset="0.78" stop-color="#932600"/>
</linearGradient>
<linearGradient id="paint17_linear_1_31" x1="17.579" y1="4.514" x2="6.98001" y2="16.811" gradientUnits="userSpaceOnUse">
<stop stop-color="#FCE2BA"/>
<stop offset="0.15" stop-color="#FCD697"/>
<stop offset="0.52" stop-color="#F9C160"/>
<stop offset="0.84" stop-color="#F7B238"/>
<stop offset="1" stop-color="#F6AC29"/>
</linearGradient>
<linearGradient id="paint18_linear_1_31" x1="18.748" y1="1.029" x2="48.201" y2="1.029" gradientUnits="userSpaceOnUse">
<stop stop-color="#F7B86D"/>
<stop offset="0.1" stop-color="#F5A953"/>
<stop offset="0.23" stop-color="#F29735"/>
<stop offset="0.38" stop-color="#F0891E"/>
<stop offset="0.53" stop-color="#EF800D"/>
<stop offset="0.7" stop-color="#EE7A03"/>
<stop offset="0.92" stop-color="#EE7800"/>
</linearGradient>
<linearGradient id="paint19_linear_1_31" x1="45.834" y1="0.552004" x2="48.794" y2="2.347" gradientUnits="userSpaceOnUse">
<stop offset="0.46" stop-color="#EE7800"/>
<stop offset="0.62" stop-color="#DC4F03"/>
</linearGradient>
<linearGradient id="paint20_linear_1_31" x1="25.38" y1="41.433" x2="58.182" y2="28.325" gradientUnits="userSpaceOnUse">
<stop stop-color="#B94100"/>
<stop offset="1" stop-color="#932600"/>
</linearGradient>
<linearGradient id="paint21_linear_1_31" x1="21.115" y1="38.559" x2="18.152" y2="36.764" gradientUnits="userSpaceOnUse">
<stop offset="0.46" stop-color="#B94100"/>
<stop offset="0.62" stop-color="#CA3D04"/>
</linearGradient>
<linearGradient id="paint22_linear_1_31" x1="5.91801" y1="20.772" x2="18.709" y2="36.141" gradientUnits="userSpaceOnUse">
<stop stop-color="#F6AC29"/>
<stop offset="0.18" stop-color="#F28C1B"/>
<stop offset="0.44" stop-color="#EC640A"/>
<stop offset="0.57" stop-color="#EA5504"/>
<stop offset="0.73" stop-color="#E65204"/>
<stop offset="0.87" stop-color="#DB4A04"/>
<stop offset="1" stop-color="#CA3D04"/>
</linearGradient>
<linearGradient id="paint23_linear_1_31" x1="31.476" y1="-2.63401" x2="35.729" y2="5.86599" gradientUnits="userSpaceOnUse">
<stop stop-color="#FCE2BA"/>
<stop offset="0.15" stop-color="#FCD697"/>
<stop offset="0.3" stop-color="#F9C277"/>
<stop offset="0.63" stop-color="#F39A37"/>
<stop offset="0.87" stop-color="#EF810F"/>
<stop offset="1" stop-color="#EE7800"/>
</linearGradient>
<clipPath id="clip0_1_31">
<rect width="170" height="40" fill="white" transform="translate(4)"/>
</clipPath>
</defs>
</svg>
